name p7_grf_mean_speed_1.0
datacolumns 13
datarows 40
range 0.0000000000 0.3900000000
endheader
time	grf_x_l_mean	grf_x_l_var	grf_y_l_mean	grf_y_l_var	grf_z_l_mean	grf_z_l_var	grf_x_r_mean	grf_x_r_var	grf_y_r_mean	grf_y_r_var	grf_z_r_mean	grf_z_r_var
0.0000000000	71.9625106987	1.0000000000	493.6069279167	1.0000000000	0.0000000000	0.0000000000	5.2647108000	1.0000000000	11.0231177510	1.0000000000	0.0000000000	0.0000000000
0.0100000000	76.5803061988	1.0000000000	484.5296855880	1.0000000000	0.0000000000	0.0000000000	8.2085829356	1.0000000000	47.6129617299	1.0000000000	0.0000000000	0.0000000000
0.0200000000	80.9906447071	1.0000000000	469.6667873508	1.0000000000	0.0000000000	0.0000000000	9.0833787134	1.0000000000	108.0294510329	1.0000000000	0.0000000000	0.0000000000
0.0300000000	84.6785943172	1.0000000000	447.5390604193	1.0000000000	0.0000000000	0.0000000000	3.6213556313	1.0000000000	185.8541920945	1.0000000000	0.0000000000	0.0000000000
0.0400000000	86.3628082452	1.0000000000	416.3624171665	1.0000000000	0.0000000000	0.0000000000	-10.2754490659	1.0000000000	263.8555899343	1.0000000000	0.0000000000	0.0000000000
0.0500000000	85.0663417579	1.0000000000	374.8163731780	1.0000000000	0.0000000000	0.0000000000	-27.1280321694	1.0000000000	324.9981407530	1.0000000000	0.0000000000	0.0000000000
0.0600000000	80.5055228124	1.0000000000	324.0069335490	1.0000000000	0.0000000000	0.0000000000	-40.7532947084	1.0000000000	362.9086396459	1.0000000000	0.0000000000	0.0000000000
0.0700000000	71.5770810838	1.0000000000	267.1992717167	1.0000000000	0.0000000000	0.0000000000	-51.0105404202	1.0000000000	383.3450510319	1.0000000000	0.0000000000	0.0000000000
0.0800000000	59.1056556730	1.0000000000	208.7761063213	1.0000000000	0.0000000000	0.0000000000	-58.3268129926	1.0000000000	397.6799921382	1.0000000000	0.0000000000	0.0000000000
0.0900000000	45.2475131728	1.0000000000	153.2393339092	1.0000000000	0.0000000000	0.0000000000	-62.5823756179	1.0000000000	413.5435389526	1.0000000000	0.0000000000	0.0000000000
0.1000000000	30.9600593582	1.0000000000	104.3104018653	1.0000000000	0.0000000000	0.0000000000	-65.1228879188	1.0000000000	432.4335964850	1.0000000000	0.0000000000	0.0000000000
0.1100000000	18.6453100236	1.0000000000	64.1591856129	1.0000000000	0.0000000000	0.0000000000	-66.0462716581	1.0000000000	453.2879775062	1.0000000000	0.0000000000	0.0000000000
0.1200000000	9.6905336775	1.0000000000	33.9299633471	1.0000000000	0.0000000000	0.0000000000	-65.1504947992	1.0000000000	474.9519439830	1.0000000000	0.0000000000	0.0000000000
0.1300000000	3.5034602162	1.0000000000	13.8909684674	1.0000000000	0.0000000000	0.0000000000	-63.4456656313	1.0000000000	495.3487666835	1.0000000000	0.0000000000	0.0000000000
0.1400000000	0.0962242977	1.0000000000	2.7989947389	1.0000000000	0.0000000000	0.0000000000	-60.7437852196	1.0000000000	511.5459201476	1.0000000000	0.0000000000	0.0000000000
0.1500000000	0.0000000000	1.0000000000	0.0000000000	1.0000000000	0.0000000000	0.0000000000	-57.0635926117	1.0000000000	521.3656235759	1.0000000000	0.0000000000	0.0000000000
0.1600000000	0.0000000000	1.0000000000	0.0000000000	1.0000000000	0.0000000000	0.0000000000	-53.5149351931	1.0000000000	524.1409255825	1.0000000000	0.0000000000	0.0000000000
0.1700000000	0.0000000000	1.0000000000	0.0000000000	1.0000000000	0.0000000000	0.0000000000	-49.8461770053	1.0000000000	520.1063237609	1.0000000000	0.0000000000	0.0000000000
0.1800000000	0.0000000000	1.0000000000	0.0000000000	1.0000000000	0.0000000000	0.0000000000	-46.0844966459	1.0000000000	509.8686640191	1.0000000000	0.0000000000	0.0000000000
0.1900000000	0.0000000000	1.0000000000	0.0000000000	1.0000000000	0.0000000000	0.0000000000	-42.7028469069	1.0000000000	494.7521871343	1.0000000000	0.0000000000	0.0000000000
0.2000000000	0.0000000000	1.0000000000	0.0000000000	1.0000000000	0.0000000000	0.0000000000	-39.2722676012	1.0000000000	477.4900803681	1.0000000000	0.0000000000	0.0000000000
0.2100000000	-0.0813285204	1.0000000000	0.0428381094	1.0000000000	0.0000000000	0.0000000000	-35.8137167576	1.0000000000	460.9783446375	1.0000000000	0.0000000000	0.0000000000
0.2200000000	-0.0965838174	1.0000000000	0.1043491842	1.0000000000	0.0000000000	0.0000000000	-32.6639210157	1.0000000000	446.1989069857	1.0000000000	0.0000000000	0.0000000000
0.2300000000	-0.0967904073	1.0000000000	0.0496432661	1.0000000000	0.0000000000	0.0000000000	-29.4069518298	1.0000000000	433.1758081113	1.0000000000	0.0000000000	0.0000000000
0.2400000000	-0.2111836565	1.0000000000	0.0091386056	1.0000000000	0.0000000000	0.0000000000	-26.3514685040	1.0000000000	422.5603681776	1.0000000000	0.0000000000	0.0000000000
0.2500000000	0.0000000000	1.0000000000	0.0000000000	1.0000000000	0.0000000000	0.0000000000	-23.7298619777	1.0000000000	414.8849933942	1.0000000000	0.0000000000	0.0000000000
0.2600000000	0.0000000000	1.0000000000	0.0000000000	1.0000000000	0.0000000000	0.0000000000	-21.2280255211	1.0000000000	409.6543261375	1.0000000000	0.0000000000	0.0000000000
0.2700000000	0.0000000000	1.0000000000	0.0000000000	1.0000000000	0.0000000000	0.0000000000	-18.8957511134	1.0000000000	406.1948126039	1.0000000000	0.0000000000	0.0000000000
0.2800000000	0.0000000000	1.0000000000	0.0000000000	1.0000000000	0.0000000000	0.0000000000	-16.6918443596	1.0000000000	404.5034468202	1.0000000000	0.0000000000	0.0000000000
0.2900000000	0.0000000000	1.0000000000	0.0000000000	1.0000000000	0.0000000000	0.0000000000	-14.4002518387	1.0000000000	404.9035934939	1.0000000000	0.0000000000	0.0000000000
0.3000000000	0.0000000000	1.0000000000	0.0000000000	1.0000000000	0.0000000000	0.0000000000	-12.2173768644	1.0000000000	407.1684824040	1.0000000000	0.0000000000	0.0000000000
0.3100000000	0.0000000000	1.0000000000	0.0000000000	1.0000000000	0.0000000000	0.0000000000	-10.0122962087	1.0000000000	410.5384105209	1.0000000000	0.0000000000	0.0000000000
0.3200000000	0.0000000000	1.0000000000	0.0000000000	1.0000000000	0.0000000000	0.0000000000	-7.6207291083	1.0000000000	414.6128910256	1.0000000000	0.0000000000	0.0000000000
0.3300000000	0.0000000000	1.0000000000	0.0000000000	1.0000000000	0.0000000000	0.0000000000	-5.2254882336	1.0000000000	419.4480105122	1.0000000000	0.0000000000	0.0000000000
0.3400000000	0.0000000000	1.0000000000	0.0000000000	1.0000000000	0.0000000000	0.0000000000	-2.7125550879	1.0000000000	424.8256967153	1.0000000000	0.0000000000	0.0000000000
0.3500000000	0.0000000000	1.0000000000	0.0000000000	1.0000000000	0.0000000000	0.0000000000	0.0271820026	1.0000000000	430.2258530351	1.0000000000	0.0000000000	0.0000000000
0.3600000000	0.0000000000	1.0000000000	0.0000000000	1.0000000000	0.0000000000	0.0000000000	2.9423480591	1.0000000000	435.3330465483	1.0000000000	0.0000000000	0.0000000000
0.3700000000	0.0000000000	1.0000000000	0.0000000000	1.0000000000	0.0000000000	0.0000000000	6.1345905989	1.0000000000	440.2367975587	1.0000000000	0.0000000000	0.0000000000
0.3800000000	-0.1920275266	1.0000000000	0.0108649551	1.0000000000	0.0000000000	0.0000000000	9.5774633981	1.0000000000	445.1635620539	1.0000000000	0.0000000000	0.0000000000
0.3900000000	-0.1632015004	1.0000000000	0.1262305241	1.0000000000	0.0000000000	0.0000000000	13.2417207621	1.0000000000	450.0450317200	1.0000000000	0.0000000000	0.0000000000
